<svg version="1.1" xmlns="http://www.w3.org/2000/svg" width="32" height="32" viewBox="0 0 32 32">
<path d="M5.675 21h1v1.325c0 1.1 0.9 2 2 2s2-0.9 2-2v-1.325h10.6v1.325c0 1.1 0.9 2 2 2s2-0.9 2-2v-1.325h1c0.175 0 0.325-0.15 0.325-0.325h-0.050v-3.975c0-1.3-1.050-2.325-2.325-2.325h-0.3l-1.075-4.35c-0.325-1.325-1.575-2.3-2.925-2.3h-7.95c-1.35 0-2.6 1-2.925 2.3l-1.075 4.35h-0.3c-1.3 0-2.325 1.050-2.325 2.325v3.975c0 0.175 0.15 0.325 0.325 0.325zM23.3 16.025c0.9 0 1.65 0.75 1.65 1.65s-0.75 1.65-1.65 1.65c-0.9 0-1.65-0.75-1.65-1.65s0.75-1.65 1.65-1.65zM11.675 10.675c0.025-0.1 0.225-0.275 0.35-0.275h7.95c0.125 0 0.325 0.175 0.375 0.275l0.925 3.7h-10.525l0.925-3.7zM8.7 16.025c0.925 0 1.65 0.75 1.65 1.65s-0.75 1.65-1.65 1.65c-0.9 0-1.65-0.75-1.65-1.65s0.75-1.65 1.65-1.65z"></path>
</svg>
