<svg version="1.1" xmlns="http://www.w3.org/2000/svg" width="32" height="32" viewBox="0 0 32 32">
<path d="M27.218 12.615l-6.018-3.647c-0.043-0.027-0.096-0.044-0.152-0.044-0.116 0-0.216 0.069-0.262 0.168l-0.001 0.002-1.41 3.311 2.863 1.709c0.162 0.094 0.27 0.266 0.27 0.464s-0.107 0.37-0.267 0.463l-0.002 0.001-5.375 3.164-2.284 5.314c-0.020 0.022-0.032 0.052-0.032 0.084 0 0.055 0.035 0.102 0.083 0.12l0.001 0c0.012 0.005 0.027 0.007 0.042 0.007 0.037 0 0.070-0.016 0.093-0.042l0-0 3.943-2.383 1.557 2.236c0.068 0.101 0.182 0.168 0.311 0.168h3.736c0 0 0 0 0 0 0.143 0 0.267-0.081 0.328-0.2l0.001-0.002c0.028-0.052 0.044-0.114 0.044-0.179 0-0.078-0.023-0.151-0.063-0.211l0.001 0.001-2.532-3.881 5.126-3.1c0.581-0.352 0.871-0.746 0.871-1.181v-1.16c0-0.436-0.29-0.829-0.872-1.181zM17.090 8.293l-12.329 7.76c-0.581 0.351-0.864 0.745-0.851 1.18v1.182c0.014 0.435 0.305 0.822 0.872 1.159l6.102 3.522c0.042 0.025 0.092 0.039 0.145 0.039 0.123 0 0.227-0.077 0.269-0.185l0.001-0.002 1.37-3.311-2.906-1.645c-0.147-0.077-0.251-0.217-0.277-0.384l-0-0.003c-0.004-0.025-0.006-0.053-0.006-0.082 0-0.195 0.104-0.365 0.26-0.458l0.002-0.001 5.335-3.269 2.199-5.356c0.005-0.013 0.007-0.028 0.007-0.043 0-0.040-0.019-0.076-0.047-0.1l-0-0c-0.021-0.017-0.048-0.027-0.077-0.027-0.026 0-0.051 0.008-0.071 0.022l0-0z"></path>
</svg>
