<svg version="1.1" xmlns="http://www.w3.org/2000/svg" width="32" height="32" viewBox="0 0 32 32">
<path d="M29.4 9.75h-3.15l-3.35 8.35-3.325-8.35h-3.175l4.925 12.3h-7.5c0.675-0.4 1.3-0.925 1.85-1.55l-1.875-1.925c-0.925 1.125-2.1 1.7-3.525 1.7-1.050 0-1.95-0.375-2.675-1.1-0.75-0.725-1.1-1.725-1.1-2.925s0.4-2.175 1.175-2.9c0.775-0.725 1.725-1.075 2.825-1.075 1.375 0 2.525 0.575 3.45 1.725l1.825-2.075c-1.45-1.625-3.25-2.45-5.4-2.45-1.925 0-3.55 0.65-4.875 1.95s-2 2.925-2 4.85c0 1.275 0.275 2.425 0.85 3.425s1.35 1.8 2.35 2.4h-4.025v1.55h26.7v-1.55h-4.9l4.925-12.35z"></path>
</svg>
