<svg version="1.1" xmlns="http://www.w3.org/2000/svg" width="32" height="32" viewBox="0 0 32 32">
<path d="M19.603 26.806v-3.76c0-1.117-0.272-2.669-1.418-3.568 3.651-0.544 6.512-2.698 6.512-6.077 0-1.389-0.573-2.778-1.581-3.923 0.301-1.28 0.464-2.861-0.109-4.032-1.443 0.138-2.886 0.87-3.949 1.526-0.899-0.218-1.824-0.381-2.861-0.381s-1.987 0.163-2.886 0.381c-1.062-0.653-2.48-1.389-3.923-1.526-0.573 1.171-0.435 2.752-0.138 4.032-1.008 1.146-1.552 2.534-1.552 3.923 0 3.379 2.861 5.53 6.512 6.077-0.544 0.41-0.87 0.979-1.091 1.552-2.861 0.054-5.149-2.208-5.178-2.208-0.138-0.109-0.326-0.138-0.435-0.054-0.163 0.083-0.246 0.272-0.192 0.435 0.054 0.138 1.2 3.379 5.475 4.685v2.915z"></path>
</svg>
