<svg version="1.1" xmlns="http://www.w3.org/2000/svg" width="32" height="32" viewBox="0 0 32 32">
<path d="M20.175 27c-0.275 0-2.85-2.475-2.65-2.7 0.050-0.050 0.425-0.1 1.225-0.125 0-1.825 0.050-4.775 0.075-6 0-0.15-0.025-0.25-0.025-0.4h-5.55c0 0.5-0.025 2.525 0.1 5.075 0.025 0.325-0.1 0.425-0.4 0.425-0.7 0-1.4 0-2.125 0-0.275 0-0.4-0.1-0.4-0.425 0.075-2.325 0.2-5.85 0-14.775v-0.225c-0.675-0.025-1.15-0.075-1.2-0.125-0.2-0.2 2.4-2.7 2.675-2.7s2.85 2.5 2.65 2.7c-0.050 0.050-0.55 0.1-1.175 0.125v0.225c-0.175 1.8-0.15 5.525-0.175 7.325h5.575c0-0.325 0.025-2.425-0.075-5.825 0-0.225 0.075-0.35 0.3-0.35 0.775 0 1.55 0 2.3 0 0.25 0 0.325 0.125 0.325 0.375-0.25 13.3-0.050 12.375-0.050 14.625 0.625 0.025 1.175 0.075 1.225 0.125 0.2 0.15-2.35 2.65-2.625 2.65z"></path>
</svg>
