<svg version="1.1" xmlns="http://www.w3.org/2000/svg" width="32" height="32" viewBox="0 0 32 32">
<path d="M12 8.32c-0.032-1.312-1.024-2.336-2.656-2.336-1.6 0-2.656 1.024-2.656 2.336s1.024 2.336 2.624 2.336h0.032c1.632 0 2.656-1.024 2.656-2.336zM11.328 12.672h-4v11.328h4v-11.328zM25.984 17.984c0-3.648-1.792-5.984-4.672-5.984-1.6 0-2.784 0.96-3.328 2.4l-0.128-1.728h-3.968c0.032 0.416 0.096 2.656 0.096 2.656v8.672h4v-6.016c0-1.6 0.736-2.656 1.984-2.656 1.216 0 2.016 0.64 2.016 2.656v6.016h4v-6.016z"></path>
</svg>
