<svg version="1.1" xmlns="http://www.w3.org/2000/svg" width="32" height="32" viewBox="0 0 32 32">
<path d="M25.2 13.425v8.15c0 0.9-0.75 1.65-1.65 1.65h-15.125c-0.9 0-1.65-0.75-1.65-1.65v-8.15c0.3 0.325 0.65 0.65 1.025 0.875 1.7 1.15 3.45 2.325 5.1 3.55 0.875 0.65 1.925 1.425 3.050 1.425h0.025c1.1 0 2.175-0.775 3.050-1.425 1.675-1.225 3.4-2.4 5.1-3.55 0.425-0.225 0.775-0.525 1.075-0.875v0zM25.2 10.425c0 1.15-0.85 2.175-1.75 2.825-1.6 1.1-3.225 2.225-4.8 3.325-0.65 0.45-1.8 1.4-2.625 1.4h-0.025c-0.825 0-1.95-0.95-2.625-1.4-1.575-1.1-3.225-2.225-4.8-3.325-0.725-0.5-1.775-1.65-1.775-2.6 0-1 0.525-1.875 1.65-1.875h15.125c0.9 0 1.625 0.725 1.625 1.65v0z"></path>
</svg>
