<svg version="1.1" xmlns="http://www.w3.org/2000/svg" width="32" height="32" viewBox="0 0 32 32">
<path d="M25.625 23.425c-0.275-3.075-0.925-5.1-1.8-6.375-0.925-1.375-2.775-1.7-4.175-0.8-1.050 0.675-2.325 1.075-3.65 1.075s-2.55-0.4-3.6-1.050c-1.4-0.875-3.25-0.575-4.175 0.8-0.875 1.3-1.55 3.325-1.825 6.35-0.175 1.775 1.25 3.325 3.025 3.325h13.15c1.8 0 3.2-1.55 3.050-3.325zM21.375 10.625c0-3.15-2.75-5.7-5.975-5.325-2.45 0.275-4.45 2.25-4.725 4.725-0.35 3.225 2.175 5.975 5.325 5.975 2.975 0 5.375-2.4 5.375-5.375z"></path>
</svg>
