<svg version="1.1" xmlns="http://www.w3.org/2000/svg" width="32" height="32" viewBox="0 0 32 32">
<path d="M13.725 10.375l6.75 4.075-0.9 1.45-6.725-4.075 0.875-1.45zM11.9 14.225l7.575 2.15-0.475 1.625-7.575-2.15c0 0 0.475-1.625 0.475-1.625zM11.175 17.625l7.85 0.75-0.175 1.7-7.85-0.75c0.025 0 0.175-1.7 0.175-1.7zM11 20.625h7.825v1.65h-7.825v-1.65zM21.575 25.025h-13.050v-8.325l1.525 0.025-0.050 6.675h10.025v-6.675h1.575c-0.025 0-0.025 8.3-0.025 8.3zM20.775 14.175l-4.575-6.425 1.375-1 4.6 6.425-1.4 1zM22.525 13.075l-1.3-7.775 1.675-0.275 1.3 7.775-1.675 0.275z"></path>
</svg>
