<svg xmlns:xlink="http://www.w3.org/1999/xlink">
  <defs>
    <!-- Navbar gradient -->
    <linearGradient id="gradient" x1="0" y1="0" x2="70%" y2="10%">
      <stop offset="0%" stop-color="#44A08D">
        <animate class="animAB" attributeName="stop-color" values="#44A08D;#2B5876" dur="200ms" begin="indefinite" repeatCount="1" fill="freeze" />
        <animate class="animBA" attributeName="stop-color" values="#2B5876;#44A08D" dur="200ms" begin="indefinite" repeatCount="1" fill="freeze" />
        <animate class="animBC" attributeName="stop-color" values="#2B5876;#A83C6E" dur="200ms" begin="indefinite" repeatCount="1" fill="freeze" />
        <animate class="animCB" attributeName="stop-color" values="#A83C6E;#2B5876" dur="200ms" begin="indefinite" repeatCount="1" fill="freeze" />
      </stop>
      <stop offset="100%" stop-color="#093637">
        <animate class="animAB" attributeName="stop-color" values="#093637;#464A78" dur="200ms" begin="indefinite" repeatCount="1" fill="freeze" />
        <animate class="animBA" attributeName="stop-color" values="#464A78;#093637" dur="200ms" begin="indefinite" repeatCount="1" fill="freeze" />
        <animate class="animBC" attributeName="stop-color" values="#464A78;#642B72" dur="200ms" begin="indefinite" repeatCount="1" fill="freeze" />
        <animate class="animCB" attributeName="stop-color" values="#642B72;#464A78" dur="200ms" begin="indefinite" repeatCount="1" fill="freeze" />
      </stop>
    </linearGradient>

    <!-- Blur filter -->
    <filter id="blured">
      <feGaussianBlur in="SourceGraphic" stdDeviation="12" result="blur" />
      <feColorMatrix in="blur" mode="matrix" values="1 0 0 0 0  0 1 0 0 0  0 0 1 0 0  0 0 0 20 -7" result="goo" />
      <feBlend in="SourceGraphic" in2="goo" />
    </filter>

    <!-- Icons -->
    <g>
      <symbol id="icon-airplane" viewBox="0 0 32 32">
        <path d="M20.45 18.225h4.45v2.225l-3.35 1.125-1.125 3.35H18.2v-4.45L15.025 17.3 9.3 24.95l-2.225-2.225 3.825-9.55-3-3c-.875-.875-1.075-2.075-.45-2.7s1.825-.4 2.7.45l3 3L22.7 7.1l2.225 2.225-7.65 5.725 3.175 3.175z" />
      </symbol>
      <symbol id="icon-car" viewBox="0 0 32 32">
        <path d="M5.675 21h1v1.325c0 1.1.9 2 2 2s2-.9 2-2V21h10.6v1.325c0 1.1.9 2 2 2s2-.9 2-2V21h1c.175 0 .325-.15.325-.325h-.05V16.7c0-1.3-1.05-2.325-2.325-2.325h-.3l-1.075-4.35c-.325-1.325-1.575-2.3-2.925-2.3h-7.95c-1.35 0-2.6 1-2.925 2.3l-1.075 4.35h-.3c-1.3 0-2.325 1.05-2.325 2.325v3.975c0 .175.15.325.325.325zM23.3 16.025c.9 0 1.65.75 1.65 1.65s-.75 1.65-1.65 1.65c-.9 0-1.65-.75-1.65-1.65s.75-1.65 1.65-1.65zm-11.625-5.35c.025-.1.225-.275.35-.275h7.95c.125 0 .325.175.375.275l.925 3.7H10.75l.925-3.7zM8.7 16.025c.925 0 1.65.75 1.65 1.65s-.75 1.65-1.65 1.65c-.9 0-1.65-.75-1.65-1.65s.75-1.65 1.65-1.65z" />
      </symbol>
      <symbol id="icon-codesignal" viewBox="0 0 32 32">
        <path d="M12.975 10.6L16 21.825 19.025 10.6l9.925-1.725-1.825 2.8-6.15.75-.75 2.475 4-.425-1.4 2.15-3.25.325-3.55 10.9-3.55-10.9-3.25-.325-1.4-2.15 4 .425-.75-2.475-6.15-.75-1.825-2.8 9.875 1.725z" />
      </symbol>
      <symbol id="icon-cv" viewBox="0 0 32 32">
        <path d="M29.4 9.75h-3.15L22.9 18.1l-3.325-8.35H16.4l4.925 12.3h-7.5c.675-.4 1.3-.925 1.85-1.55L13.8 18.575c-.925 1.125-2.1 1.7-3.525 1.7-1.05 0-1.95-.375-2.675-1.1-.75-.725-1.1-1.725-1.1-2.925s.4-2.175 1.175-2.9c.775-.725 1.725-1.075 2.825-1.075 1.375 0 2.525.575 3.45 1.725l1.825-2.075c-1.45-1.625-3.25-2.45-5.4-2.45-1.925 0-3.55.65-4.875 1.95s-2 2.925-2 4.85c0 1.275.275 2.425.85 3.425s1.35 1.8 2.35 2.4H2.675v1.55h26.7V22.1h-4.9L29.4 9.75z" />
      </symbol>
      <symbol id="icon-facebook" viewBox="0 0 32 32">
        <path d="M17.504 26.525V16.259h2.774l.467-3.238h-3.242V10.17c0-.934.467-1.453 1.424-1.453h2.048V5.683s-.96-.208-2.333-.208c-3.11 0-4.666 1.738-4.666 4.304v3.238h-2.954v3.238h2.954v10.266z" />
      </symbol>
      <symbol id="icon-github" viewBox="0 0 32 32">
        <path d="M19.603 26.806v-3.76c0-1.117-.272-2.669-1.418-3.568 3.651-.544 6.512-2.698 6.512-6.077 0-1.389-.573-2.778-1.581-3.923.301-1.28.464-2.861-.109-4.032-1.443.138-2.886.87-3.949 1.526-.899-.218-1.824-.381-2.861-.381s-1.987.163-2.886.381c-1.062-.653-2.48-1.389-3.923-1.526-.573 1.171-.435 2.752-.138 4.032-1.008 1.146-1.552 2.534-1.552 3.923 0 3.379 2.861 5.53 6.512 6.077-.544.41-.87.979-1.091 1.552-2.861.054-5.149-2.208-5.178-2.208-.138-.109-.326-.138-.435-.054-.163.083-.246.272-.192.435.054.138 1.2 3.379 5.475 4.685v2.915z" />
      </symbol>
      <symbol id="icon-hackerrank" viewBox="0 0 32 32">
        <path d="M20.175 27c-.275 0-2.85-2.475-2.65-2.7.05-.05.425-.1 1.225-.125 0-1.825.05-4.775.075-6 0-.15-.025-.25-.025-.4h-5.55c0 .5-.025 2.525.1 5.075.025.325-.1.425-.4.425h-2.125c-.275 0-.4-.1-.4-.425.075-2.325.2-5.85 0-14.775V7.85c-.675-.025-1.15-.075-1.2-.125-.2-.2 2.4-2.7 2.675-2.7s2.85 2.5 2.65 2.7c-.05.05-.55.1-1.175.125v.225c-.175 1.8-.15 5.525-.175 7.325h5.575c0-.325.025-2.425-.075-5.825 0-.225.075-.35.3-.35h2.3c.25 0 .325.125.325.375-.25 13.3-.05 12.375-.05 14.625.625.025 1.175.075 1.225.125.2.15-2.35 2.65-2.625 2.65z" />
      </symbol>
      <symbol id="icon-linkedin" viewBox="0 0 32 32">
        <path d="M12 8.32c-.032-1.312-1.024-2.336-2.656-2.336-1.6 0-2.656 1.024-2.656 2.336s1.024 2.336 2.624 2.336h.032C10.976 10.656 12 9.632 12 8.32zm-.672 4.352h-4V24h4V12.672zm14.656 5.312c0-3.648-1.792-5.984-4.672-5.984-1.6 0-2.784.96-3.328 2.4l-.128-1.728h-3.968c.032.416.096 2.656.096 2.656V24h4v-6.016c0-1.6.736-2.656 1.984-2.656 1.216 0 2.016.64 2.016 2.656V24h4v-6.016z" />
      </symbol>
      <symbol id="icon-mail" viewBox="0 0 32 32">
        <path d="M25.2 13.425v8.15c0 .9-.75 1.65-1.65 1.65H8.425c-.9 0-1.65-.75-1.65-1.65v-8.15c.3.325.65.65 1.025.875 1.7 1.15 3.45 2.325 5.1 3.55.875.65 1.925 1.425 3.05 1.425h.025c1.1 0 2.175-.775 3.05-1.425 1.675-1.225 3.4-2.4 5.1-3.55.425-.225.775-.525 1.075-.875zm0-3c0 1.15-.85 2.175-1.75 2.825-1.6 1.1-3.225 2.225-4.8 3.325-.65.45-1.8 1.4-2.625 1.4H16c-.825 0-1.95-.95-2.625-1.4-1.575-1.1-3.225-2.225-4.8-3.325-.725-.5-1.775-1.65-1.775-2.6 0-1 .525-1.875 1.65-1.875h15.125c.9 0 1.625.725 1.625 1.65z" />
      </symbol>
      <symbol id="icon-map" viewBox="0 0 32 32">
        <path d="M16 5.875c-3.95 0-7.15 3.2-7.15 7.15 0 5 7.15 13.1 7.15 13.1s7.15-8.1 7.15-13.1c0-3.95-3.2-7.15-7.15-7.15zm0 9.825c-1.95 0-3.55-1.6-3.55-3.55S14.05 8.6 16 8.6c1.95 0 3.55 1.6 3.55 3.55S17.95 15.7 16 15.7z" />
      </symbol>
      <symbol id="icon-profile" viewBox="0 0 32 32">
        <path d="M25.625 23.425c-.275-3.075-.925-5.1-1.8-6.375-.925-1.375-2.775-1.7-4.175-.8-1.05.675-2.325 1.075-3.65 1.075s-2.55-.4-3.6-1.05c-1.4-.875-3.25-.575-4.175.8-.875 1.3-1.55 3.325-1.825 6.35-.175 1.775 1.25 3.325 3.025 3.325h13.15c1.8 0 3.2-1.55 3.05-3.325zm-4.25-12.8c0-3.15-2.75-5.7-5.975-5.325-2.45.275-4.45 2.25-4.725 4.725C10.325 13.25 12.85 16 16 16c2.975 0 5.375-2.4 5.375-5.375z" />
      </symbol>
      <symbol id="icon-stackoverflow" viewBox="0 0 32 32">
        <path d="M13.725 10.375l6.75 4.075-.9 1.45-6.725-4.075.875-1.45zm-1.825 3.85l7.575 2.15L19 18l-7.575-2.15.475-1.625zm-.725 3.4l7.85.75-.175 1.7-7.85-.75c.025 0 .175-1.7.175-1.7zm-.175 3h7.825v1.65H11v-1.65zm10.575 4.4H8.525V16.7l1.525.025L10 23.4h10.025v-6.675H21.6c-.025 0-.025 8.3-.025 8.3zm-.8-10.85L16.2 7.75l1.375-1 4.6 6.425-1.4 1zm1.75-1.1l-1.3-7.775 1.675-.275 1.3 7.775-1.675.275z" />
      </symbol>
    </g>
  </defs>
</svg>