<svg xmlns:xlink="http://www.w3.org/1999/xlink">
  <defs>
    <!-- Navbar gradient -->
    <linearGradient id="gradient" x1="0" y1="0" x2="70%" y2="10%">
      <stop offset="0%" stop-color="#44A08D">
        <animate class="animAB" attributeName="stop-color" values="#44A08D;#2B5876" dur="200ms" begin="indefinite" repeatCount="1" fill="freeze" />
        <animate class="animBA" attributeName="stop-color" values="#2B5876;#44A08D" dur="200ms" begin="indefinite" repeatCount="1" fill="freeze" />
        <animate class="animBC" attributeName="stop-color" values="#2B5876;#A83C6E" dur="200ms" begin="indefinite" repeatCount="1" fill="freeze" />
        <animate class="animCB" attributeName="stop-color" values="#A83C6E;#2B5876" dur="200ms" begin="indefinite" repeatCount="1" fill="freeze" />
      </stop>
      <stop offset="100%" stop-color="#093637">
        <animate class="animAB" attributeName="stop-color" values="#093637;#464A78" dur="200ms" begin="indefinite" repeatCount="1" fill="freeze" />
        <animate class="animBA" attributeName="stop-color" values="#464A78;#093637" dur="200ms" begin="indefinite" repeatCount="1" fill="freeze" />
        <animate class="animBC" attributeName="stop-color" values="#464A78;#642B72" dur="200ms" begin="indefinite" repeatCount="1" fill="freeze" />
        <animate class="animCB" attributeName="stop-color" values="#642B72;#464A78" dur="200ms" begin="indefinite" repeatCount="1" fill="freeze" />
      </stop>
    </linearGradient>

    <!-- Blur filter -->
    <filter id="blured">
      <feGaussianBlur in="SourceGraphic" stdDeviation="12" result="blur" />
      <feColorMatrix in="blur" mode="matrix" values="1 0 0 0 0  0 1 0 0 0  0 0 1 0 0  0 0 0 20 -7" result="goo" />
      <feBlend in="SourceGraphic" in2="goo" />
    </filter>

    <!-- Icons -->
    <g>
      <symbol id="icon-airplane" viewBox="0 0 32 32">
        <path d="M20.45 18.225h4.45v2.225l-3.35 1.125-1.125 3.35h-2.225v-4.45l-3.175-3.175-5.725 7.65-2.225-2.225 3.825-9.55-3-3c-0.875-0.875-1.075-2.075-0.45-2.7s1.825-0.4 2.7 0.45l3 3 9.55-3.825 2.225 2.225-7.65 5.725 3.175 3.175z"></path>
      </symbol>
      <symbol id="icon-car" viewBox="0 0 32 32">
        <path d="M5.675 21h1v1.325c0 1.1 0.9 2 2 2s2-0.9 2-2v-1.325h10.6v1.325c0 1.1 0.9 2 2 2s2-0.9 2-2v-1.325h1c0.175 0 0.325-0.15 0.325-0.325h-0.050v-3.975c0-1.3-1.050-2.325-2.325-2.325h-0.3l-1.075-4.35c-0.325-1.325-1.575-2.3-2.925-2.3h-7.95c-1.35 0-2.6 1-2.925 2.3l-1.075 4.35h-0.3c-1.3 0-2.325 1.050-2.325 2.325v3.975c0 0.175 0.15 0.325 0.325 0.325zM23.3 16.025c0.9 0 1.65 0.75 1.65 1.65s-0.75 1.65-1.65 1.65c-0.9 0-1.65-0.75-1.65-1.65s0.75-1.65 1.65-1.65zM11.675 10.675c0.025-0.1 0.225-0.275 0.35-0.275h7.95c0.125 0 0.325 0.175 0.375 0.275l0.925 3.7h-10.525l0.925-3.7zM8.7 16.025c0.925 0 1.65 0.75 1.65 1.65s-0.75 1.65-1.65 1.65c-0.9 0-1.65-0.75-1.65-1.65s0.75-1.65 1.65-1.65z"></path>
      </symbol>
      <symbol id="icon-codersrank" viewBox="0 0 32 32">
        <path d="M27.218 12.615l-6.018-3.647c-0.043-0.027-0.096-0.044-0.152-0.044-0.116 0-0.216 0.069-0.262 0.168l-0.001 0.002-1.41 3.311 2.863 1.709c0.162 0.094 0.27 0.266 0.27 0.464s-0.107 0.37-0.267 0.463l-0.002 0.001-5.375 3.164-2.284 5.314c-0.020 0.022-0.032 0.052-0.032 0.084 0 0.055 0.035 0.102 0.083 0.12l0.001 0c0.012 0.005 0.027 0.007 0.042 0.007 0.037 0 0.070-0.016 0.093-0.042l0-0 3.943-2.383 1.557 2.236c0.068 0.101 0.182 0.168 0.311 0.168h3.736c0 0 0 0 0 0 0.143 0 0.267-0.081 0.328-0.2l0.001-0.002c0.028-0.052 0.044-0.114 0.044-0.179 0-0.078-0.023-0.151-0.063-0.211l0.001 0.001-2.532-3.881 5.126-3.1c0.581-0.352 0.871-0.746 0.871-1.181v-1.16c0-0.436-0.29-0.829-0.872-1.181zM17.090 8.293l-12.329 7.76c-0.581 0.351-0.864 0.745-0.851 1.18v1.182c0.014 0.435 0.305 0.822 0.872 1.159l6.102 3.522c0.042 0.025 0.092 0.039 0.145 0.039 0.123 0 0.227-0.077 0.269-0.185l0.001-0.002 1.37-3.311-2.906-1.645c-0.147-0.077-0.251-0.217-0.277-0.384l-0-0.003c-0.004-0.025-0.006-0.053-0.006-0.082 0-0.195 0.104-0.365 0.26-0.458l0.002-0.001 5.335-3.269 2.199-5.356c0.005-0.013 0.007-0.028 0.007-0.043 0-0.040-0.019-0.076-0.047-0.1l-0-0c-0.021-0.017-0.048-0.027-0.077-0.027-0.026 0-0.051 0.008-0.071 0.022l0-0z"></path>
      </symbol>
      <symbol id="icon-codesignal" viewBox="0 0 32 32">
        <path d="M12.975 10.6l3.025 11.225 3.025-11.225 9.925-1.725-1.825 2.8-6.15 0.75-0.75 2.475 4-0.425-1.4 2.15-3.25 0.325-3.55 10.9-3.55-10.9-3.25-0.325-1.4-2.15 4 0.425-0.75-2.475-6.15-0.75-1.825-2.8 9.875 1.725z"></path>
      </symbol>
      <symbol id="icon-cv" viewBox="0 0 32 32">
        <path d="M29.4 9.75h-3.15l-3.35 8.35-3.325-8.35h-3.175l4.925 12.3h-7.5c0.675-0.4 1.3-0.925 1.85-1.55l-1.875-1.925c-0.925 1.125-2.1 1.7-3.525 1.7-1.050 0-1.95-0.375-2.675-1.1-0.75-0.725-1.1-1.725-1.1-2.925s0.4-2.175 1.175-2.9c0.775-0.725 1.725-1.075 2.825-1.075 1.375 0 2.525 0.575 3.45 1.725l1.825-2.075c-1.45-1.625-3.25-2.45-5.4-2.45-1.925 0-3.55 0.65-4.875 1.95s-2 2.925-2 4.85c0 1.275 0.275 2.425 0.85 3.425s1.35 1.8 2.35 2.4h-4.025v1.55h26.7v-1.55h-4.9l4.925-12.35z"></path>
      </symbol>
      <symbol id="icon-facebook" viewBox="0 0 32 32">
        <path d="M17.504 26.525v-10.266h2.774l0.467-3.238h-3.242v-2.851c0-0.934 0.467-1.453 1.424-1.453h2.048v-3.034c0 0-0.96-0.208-2.333-0.208-3.11 0-4.666 1.738-4.666 4.304v3.238h-2.954v3.238h2.954v10.266z"></path>
      </symbol>
      <symbol id="icon-github" viewBox="0 0 32 32">
        <path d="M19.603 26.806v-3.76c0-1.117-0.272-2.669-1.418-3.568 3.651-0.544 6.512-2.698 6.512-6.077 0-1.389-0.573-2.778-1.581-3.923 0.301-1.28 0.464-2.861-0.109-4.032-1.443 0.138-2.886 0.87-3.949 1.526-0.899-0.218-1.824-0.381-2.861-0.381s-1.987 0.163-2.886 0.381c-1.062-0.653-2.48-1.389-3.923-1.526-0.573 1.171-0.435 2.752-0.138 4.032-1.008 1.146-1.552 2.534-1.552 3.923 0 3.379 2.861 5.53 6.512 6.077-0.544 0.41-0.87 0.979-1.091 1.552-2.861 0.054-5.149-2.208-5.178-2.208-0.138-0.109-0.326-0.138-0.435-0.054-0.163 0.083-0.246 0.272-0.192 0.435 0.054 0.138 1.2 3.379 5.475 4.685v2.915z"></path>
      </symbol>
      <symbol id="icon-hackerrank" viewBox="0 0 32 32">
        <path d="M20.175 27c-0.275 0-2.85-2.475-2.65-2.7 0.050-0.050 0.425-0.1 1.225-0.125 0-1.825 0.050-4.775 0.075-6 0-0.15-0.025-0.25-0.025-0.4h-5.55c0 0.5-0.025 2.525 0.1 5.075 0.025 0.325-0.1 0.425-0.4 0.425-0.7 0-1.4 0-2.125 0-0.275 0-0.4-0.1-0.4-0.425 0.075-2.325 0.2-5.85 0-14.775v-0.225c-0.675-0.025-1.15-0.075-1.2-0.125-0.2-0.2 2.4-2.7 2.675-2.7s2.85 2.5 2.65 2.7c-0.050 0.050-0.55 0.1-1.175 0.125v0.225c-0.175 1.8-0.15 5.525-0.175 7.325h5.575c0-0.325 0.025-2.425-0.075-5.825 0-0.225 0.075-0.35 0.3-0.35 0.775 0 1.55 0 2.3 0 0.25 0 0.325 0.125 0.325 0.375-0.25 13.3-0.050 12.375-0.050 14.625 0.625 0.025 1.175 0.075 1.225 0.125 0.2 0.15-2.35 2.65-2.625 2.65z"></path>
      </symbol>
      <symbol id="icon-linkedin" viewBox="0 0 32 32">
        <path d="M12 8.32c-0.032-1.312-1.024-2.336-2.656-2.336-1.6 0-2.656 1.024-2.656 2.336s1.024 2.336 2.624 2.336h0.032c1.632 0 2.656-1.024 2.656-2.336zM11.328 12.672h-4v11.328h4v-11.328zM25.984 17.984c0-3.648-1.792-5.984-4.672-5.984-1.6 0-2.784 0.96-3.328 2.4l-0.128-1.728h-3.968c0.032 0.416 0.096 2.656 0.096 2.656v8.672h4v-6.016c0-1.6 0.736-2.656 1.984-2.656 1.216 0 2.016 0.64 2.016 2.656v6.016h4v-6.016z"></path>
      </symbol>
      <symbol id="icon-mail" viewBox="0 0 32 32">
        <path d="M25.2 13.425v8.15c0 0.9-0.75 1.65-1.65 1.65h-15.125c-0.9 0-1.65-0.75-1.65-1.65v-8.15c0.3 0.325 0.65 0.65 1.025 0.875 1.7 1.15 3.45 2.325 5.1 3.55 0.875 0.65 1.925 1.425 3.050 1.425h0.025c1.1 0 2.175-0.775 3.050-1.425 1.675-1.225 3.4-2.4 5.1-3.55 0.425-0.225 0.775-0.525 1.075-0.875v0zM25.2 10.425c0 1.15-0.85 2.175-1.75 2.825-1.6 1.1-3.225 2.225-4.8 3.325-0.65 0.45-1.8 1.4-2.625 1.4h-0.025c-0.825 0-1.95-0.95-2.625-1.4-1.575-1.1-3.225-2.225-4.8-3.325-0.725-0.5-1.775-1.65-1.775-2.6 0-1 0.525-1.875 1.65-1.875h15.125c0.9 0 1.625 0.725 1.625 1.65v0z"></path>
      </symbol>
      <symbol id="icon-map" viewBox="0 0 32 32">
        <path d="M16 5.875c-3.95 0-7.15 3.2-7.15 7.15 0 5 7.15 13.1 7.15 13.1s7.15-8.1 7.15-13.1c0-3.95-3.2-7.15-7.15-7.15zM16 15.7c-1.95 0-3.55-1.6-3.55-3.55s1.6-3.55 3.55-3.55c1.95 0 3.55 1.6 3.55 3.55s-1.6 3.55-3.55 3.55z"></path>
      </symbol>
      <symbol id="icon-profile" viewBox="0 0 32 32">
        <path d="M25.625 23.425c-0.275-3.075-0.925-5.1-1.8-6.375-0.925-1.375-2.775-1.7-4.175-0.8-1.050 0.675-2.325 1.075-3.65 1.075s-2.55-0.4-3.6-1.050c-1.4-0.875-3.25-0.575-4.175 0.8-0.875 1.3-1.55 3.325-1.825 6.35-0.175 1.775 1.25 3.325 3.025 3.325h13.15c1.8 0 3.2-1.55 3.050-3.325zM21.375 10.625c0-3.15-2.75-5.7-5.975-5.325-2.45 0.275-4.45 2.25-4.725 4.725-0.35 3.225 2.175 5.975 5.325 5.975 2.975 0 5.375-2.4 5.375-5.375z"></path>
      </symbol>
      <symbol id="icon-stackoverflow" viewBox="0 0 32 32">
        <path d="M13.725 10.375l6.75 4.075-0.9 1.45-6.725-4.075 0.875-1.45zM11.9 14.225l7.575 2.15-0.475 1.625-7.575-2.15c0 0 0.475-1.625 0.475-1.625zM11.175 17.625l7.85 0.75-0.175 1.7-7.85-0.75c0.025 0 0.175-1.7 0.175-1.7zM11 20.625h7.825v1.65h-7.825v-1.65zM21.575 25.025h-13.050v-8.325l1.525 0.025-0.050 6.675h10.025v-6.675h1.575c-0.025 0-0.025 8.3-0.025 8.3zM20.775 14.175l-4.575-6.425 1.375-1 4.6 6.425-1.4 1zM22.525 13.075l-1.3-7.775 1.675-0.275 1.3 7.775-1.675 0.275z"></path>
      </symbol>
    </g>
  </defs>
</svg>